<?xml version="1.0" ?><!DOCTYPE svg  PUBLIC '-//W3C//DTD SVG 1.1//EN'  'http://www.w3.org/Graphics/SVG/1.1/DTD/svg11.dtd'><svg enable-background="new 0 0 128 128" id="Слой_1" version="1.1" viewBox="0 0 128 128" xml:space="preserve" xmlns="http://www.w3.org/2000/svg" xmlns:xlink="http://www.w3.org/1999/xlink"><line fill="#F8F7FB" x1="64.5" x2="64.5" y1="113.1" y2="124"/><line fill="#F8F7FB" x1="64.5" x2="74.5" y1="107.4" y2="121"/><line fill="#F8F7FB" x1="64.5" x2="54.5" y1="107.4" y2="121"/><path d="M83,106.8l-18.5-3.7L46,106.8c-17.2,3.4-33.9-8.1-36.8-25.4l0,0c-2.7-16,7.4-31.4,23.1-35.3l0,0  c7.6-1.9,13.6-7.5,16.1-14.9l0,0c4-12,6-27.2,6-27.2h20c0,0,2,15.2,6,27.2l0,0c2.5,7.4,8.5,13,16.1,14.9l0,0  c15.7,3.9,25.8,19.3,23.1,35.3l0,0C116.9,98.8,100.2,110.3,83,106.8z" fill="#F7F9E2"/><g><path d="M72.5,104.7l10.5,2.1c4.8,1,9.6,0.8,14-0.4l-16.5-3.3L72.5,104.7z" fill="#F8F7FB"/><path d="M25.2,81.4L25.2,81.4C22.8,66.9,32,55.2,44.1,47.5c1.1-0.7,3.1-2.3,4.7-4.6c1.7-2.5,3.6-5.2,4.2-8.3L59.5,4   h-5c0,0-2,15.2-6,27.2h0c-2.5,7.4-8.5,13-16.1,14.9h0C16.6,50.1,6.5,65.4,9.2,81.4v0c0,18,14.4,29.8,32.1,26.3l6.7-1.3   C36.5,103.4,27.3,93.9,25.2,81.4z" opacity="0.1"/><path d="M48,106.4c4.4,1.2,9.2,1.4,14,0.4l10.5-2.1l-8-1.6L48,106.4z" fill="#F8F7FB"/></g><path d="M94.5,83.1c0,16.6-13.4,30-30,30h0c-16.6,0-30-13.4-30-30" fill="#F7F9E2"/><g opacity="0.1"><path d="M34.5,83.1L34.5,83.1c0,16.6,13.4,30,30,30h0c1.7,0,3.4-0.1,5-0.4c-11.4-1.9-23.7-10.3-26.8-21.3   C41.2,86.5,39.6,83.1,34.5,83.1z"/></g><path d="M62,11.5c-1.4-0.3-2.7,0.6-2.9,2l-4,20.3c-2,9-5.4,11.7-9.4,14.7c-2.4,1.9-5.2,4-7.7,7.7  c-0.8,1.1-0.5,2.7,0.7,3.5c0.4,0.3,0.9,0.4,1.4,0.4c0.8,0,1.6-0.4,2.1-1.1c2-3,4.2-4.7,6.6-6.5c4.3-3.4,8.8-6.9,11.2-17.7L64,14.5  C64.2,13.1,63.3,11.8,62,11.5z" fill="#62355C"/><path d="M96.7,43.7C90,42,84.6,37.1,82.4,30.4c-3.9-11.6-5.9-26.6-5.9-26.8c-0.2-1.2-1.2-2.2-2.5-2.2H54  c-1.3,0-2.3,0.9-2.5,2.2c0,0.2-2.1,15.1-5.9,26.8C43.4,37.1,38,42,31.3,43.7c-16.9,4.2-27.9,21-25,38.1  c2.7,16.3,16.6,28.1,33.1,28.1c1.9,0,3.8-0.2,5.6-0.5c0,0,0,0,0,0c3.2,2.3,6.8,4,10.7,5.1l-3.7,5c-0.8,1.1-0.6,2.7,0.5,3.5  c0.4,0.3,1,0.5,1.5,0.5c0.8,0,1.5-0.4,2-1l5.2-7c0,0,0,0,0,0c0,0,0,0,0,0l0,0c0.1,0,0.2,0,0.3,0v0c0,0,0.1,0,0.1,0c0,0-0.1,0-0.1,0  v8.5c0,1.4,1.1,2.5,2.5,2.5s2.5-1.1,2.5-2.5v-8.5c0,0-0.1,0-0.1,0c0,0,0.1,0,0.1,0v0c0.1,0,0.2,0,0.3,0l0,0c0,0,0,0,0,0c0,0,0,0,0,0  l5.2,7c0.5,0.7,1.2,1,2,1c0.5,0,1-0.2,1.5-0.5c1.1-0.8,1.3-2.4,0.5-3.5l-3.7-5c3.9-1,7.5-2.8,10.7-5.1c1.9,0.3,3.7,0.5,5.6,0.5  c16.5,0,30.4-11.8,33.1-28.1C124.6,64.7,113.6,47.9,96.7,43.7z M59.8,115.3C59.8,115.3,59.8,115.3,59.8,115.3  C59.8,115.3,59.8,115.3,59.8,115.3z M68.2,115.3C68.2,115.3,68.2,115.3,68.2,115.3C68.2,115.3,68.2,115.3,68.2,115.3z M116.8,81  c-2.3,13.9-14.2,23.9-28.2,23.9c-0.2,0-0.4,0-0.6,0c5.2-5.8,8.4-13.4,8.4-21.8c0-1.4-1.1-2.5-2.5-2.5s-2.5,1.1-2.5,2.5  c0,15.2-12.3,27.5-27.5,27.5c-15.2,0-27.5-12.3-27.5-27.5c0-1.4-1.1-2.5-2.5-2.5s-2.5,1.1-2.5,2.5c0,8.4,3.2,16,8.4,21.8  c-0.2,0-0.4,0-0.6,0c-14,0-25.9-10.1-28.2-23.9c-2.4-14.6,6.9-28.9,21.3-32.4c8.4-2.1,15.1-8.3,17.9-16.5c3.2-9.5,5.1-20.9,5.8-25.5  h15.7c0.7,4.7,2.7,16,5.8,25.5c2.8,8.3,9.4,14.4,17.9,16.5C109.9,52.2,119.2,66.4,116.8,81z" fill="#62355C"/></svg>